<svg class="svg-icon" style="width: 1em;height: 1em;vertical-align: middle;fill: currentColor;overflow: hidden;" viewBox="0 0 1024 1024" version="1.1" xmlns="http://www.w3.org/2000/svg"><path d="M117.333333 960c-17.066667 0-32-14.933333-32-32 0-232.533333 187.733333-418.133333 420.266667-418.133333 83.2 0 164.266667 25.6 234.666667 72.533333 14.933333 8.533333 23.466667 27.733333 14.933333 42.666667-8.533333 14.933333-27.733333 23.466667-42.666667 14.933333-2.133333-2.133333-4.266667-2.133333-6.4-4.266667-162.133333-110.933333-384-68.266667-492.8 93.866667-42.666667 57.6-64 128-64 198.4 0 17.066667-14.933333 32-32 32z"  /><path d="M505.6 573.866667c-140.8 0-253.866667-113.066667-253.866667-253.866667S364.8 64 505.6 64s253.866667 113.066667 253.866667 253.866667c0 140.8-115.2 256-253.866667 256z m0-445.866667c-104.533333 0-189.866667 85.333333-189.866667 189.866667s85.333333 189.866667 189.866667 189.866666 189.866667-85.333333 189.866667-189.866666-85.333333-189.866667-189.866667-189.866667zM906.666667 960c-8.533333 0-17.066667-4.266667-23.466667-8.533333l-181.333333-181.333334c-12.8-12.8-12.8-32 0-44.8 12.8-12.8 32-12.8 44.8 0l181.333333 181.333334c12.8 12.8 12.8 32 0 44.8-4.266667 4.266667-12.8 8.533333-21.333333 8.533333z"  /><path d="M725.333333 960c-8.533333 0-17.066667-4.266667-23.466666-8.533333-12.8-12.8-12.8-32 0-44.8l181.333333-179.2c12.8-12.8 32-12.8 44.8-2.133334s12.8 32 2.133333 44.8c0 0 0 2.133333-2.133333 2.133334L746.666667 953.6c-4.266667 4.266667-12.8 6.4-21.333334 6.4z"  /></svg>